# xmcd
#
# Track frame offsets:
# 150
# 16142
# 27644
# 44316
# 68052
# 87900
# 107245
# 125299
# 148984
# 173048
# 192418
# 216950
# 233954
# 248543
# 274053
# 287736
#
# Disc length: 4068 seconds
#
#
# Revision: 0
# Processed by: cddbd v1.5.2PL0 Copyright (c) Steve Scherf et al.
# Submitted via: FreeRIP 2.951 
#
DISCID=eb0fe210
DTITLE=Pat Drummond and Karen Lynne - the long journey home
DYEAR=2008
DGENRE=Country
TTITLE0=18 wheels
TTITLE1=Darling Downs
TTITLE2=Calling Me
TTITLE3=Davids Watch
TTITLE4=The Bridge
TTITLE5=Dreams
TTITLE6=Love and Irrational Hope
TTITLE7=If a Man is a Man
TTITLE8=Amish Mourn
TTITLE9=Spirit of the Southern Shore
TTITLE10=The Bunyip of Hooligans Creek
TTITLE11=Hearts Above the Water Line
TTITLE12=Carol Lights
TTITLE13=Wild Flowers
TTITLE14=Arrogance
TTITLE15=Somewhere down the line
EXTD=
EXTT0=
EXTT1=
EXTT2=
EXTT3=
EXTT4=
EXTT5=
EXTT6=
EXTT7=
EXTT8=
EXTT9=
EXTT10=
EXTT11=
EXTT12=
EXTT13=
EXTT14=
EXTT15=
PLAYORDER=
